<mxfile host="65bd71144e">
    <diagram name="Page-1" id="1VTvxivwpSPhkvNJXZJ3">
        <mxGraphModel dx="771" dy="536" grid="1" gridSize="10" guides="1" tooltips="1" connect="0" arrows="0" fold="1" page="1" pageScale="1" pageWidth="850" pageHeight="1100" background="#ffffff" math="0" shadow="0">
            <root>
                <mxCell id="sueAwKAaTNoMhfTQWeYg-0"/>
                <mxCell id="sueAwKAaTNoMhfTQWeYg-1" parent="sueAwKAaTNoMhfTQWeYg-0"/>
                <mxCell id="sueAwKAaTNoMhfTQWeYg-2" value="http://ics2o.mths.ca" style="swimlane;whiteSpace=wrap;html=1;strokeColor=#000000;strokeWidth=1;gradientColor=none;perimeterSpacing=0;glass=0;labelBackgroundColor=none;labelBorderColor=none;" parent="sueAwKAaTNoMhfTQWeYg-1" vertex="1">
                    <mxGeometry x="40" y="40" width="760" height="636.5" as="geometry"/>
                </mxCell>
                <mxCell id="sueAwKAaTNoMhfTQWeYg-3" value="" style="whiteSpace=wrap;html=1;glass=0;labelBackgroundColor=none;labelBorderColor=none;fontSize=22;fillColor=#E96960;strokeColor=#36393d;" parent="sueAwKAaTNoMhfTQWeYg-2" vertex="1">
                    <mxGeometry y="20" width="760" height="590" as="geometry"/>
                </mxCell>
                <mxCell id="sueAwKAaTNoMhfTQWeYg-4" value="" style="whiteSpace=wrap;html=1;fontSize=22;fillColor=#FF4B0F;strokeColor=#d79b00;gradientColor=none;" parent="sueAwKAaTNoMhfTQWeYg-2" vertex="1">
                    <mxGeometry y="20" width="760" height="50" as="geometry"/>
                </mxCell>
                <mxCell id="sueAwKAaTNoMhfTQWeYg-6" value="Number&amp;nbsp; &amp;nbsp; &amp;nbsp; &amp;nbsp;&amp;nbsp;⌄" style="whiteSpace=wrap;html=1;glass=0;labelBackgroundColor=none;labelBorderColor=none;fontSize=22;fontColor=#000000;fillColor=#FFFFFF;gradientColor=none;" parent="sueAwKAaTNoMhfTQWeYg-2" vertex="1">
                    <mxGeometry x="30" y="115" width="150" height="25" as="geometry"/>
                </mxCell>
                <mxCell id="sueAwKAaTNoMhfTQWeYg-8" value="&lt;span style=&quot;font-size: 24px;&quot;&gt;&lt;font color=&quot;#ffffff&quot;&gt;Guess a number from 1-6 using the select element.&lt;/font&gt;&lt;/span&gt;" style="text;html=1;align=center;verticalAlign=middle;resizable=0;points=[];autosize=1;fontSize=26;fontColor=#000000;" parent="sueAwKAaTNoMhfTQWeYg-2" vertex="1">
                    <mxGeometry y="65" width="570" height="50" as="geometry"/>
                </mxCell>
                <mxCell id="sueAwKAaTNoMhfTQWeYg-13" value="Guess" style="whiteSpace=wrap;html=1;fillColor=#999999;" parent="sueAwKAaTNoMhfTQWeYg-2" vertex="1">
                    <mxGeometry x="45" y="160" width="120" height="30" as="geometry"/>
                </mxCell>
                <mxCell id="sueAwKAaTNoMhfTQWeYg-14" value="&lt;font color=&quot;#ffffff&quot;&gt;You have not guessed yet.&lt;/font&gt;" style="text;strokeColor=none;align=left;fillColor=none;html=1;verticalAlign=middle;whiteSpace=wrap;rounded=0;fontSize=18;fontColor=#000000;" parent="sueAwKAaTNoMhfTQWeYg-2" vertex="1">
                    <mxGeometry x="20" y="210" width="530" height="30" as="geometry"/>
                </mxCell>
                <mxCell id="sueAwKAaTNoMhfTQWeYg-15" value="&lt;font color=&quot;#ffffff&quot;&gt;Guess the Number&lt;/font&gt;" style="text;html=1;align=center;verticalAlign=middle;resizable=0;points=[];autosize=1;fontSize=30;fontColor=#000000;" parent="sueAwKAaTNoMhfTQWeYg-2" vertex="1">
                    <mxGeometry x="245" y="20" width="280" height="50" as="geometry"/>
                </mxCell>
            </root>
        </mxGraphModel>
    </diagram>
    <diagram name="Page-2" id="RqShVcK2-ib4BSny2mNw">
        <mxGraphModel dx="810" dy="563" grid="1" gridSize="10" guides="1" tooltips="1" connect="0" arrows="0" fold="1" page="1" pageScale="1" pageWidth="850" pageHeight="1100" background="#ffffff" math="0" shadow="0">
            <root>
                <mxCell id="Yp97-BhbkqVemv3eh-Q1-0"/>
                <mxCell id="Yp97-BhbkqVemv3eh-Q1-1" parent="Yp97-BhbkqVemv3eh-Q1-0"/>
                <mxCell id="Yp97-BhbkqVemv3eh-Q1-2" value="http://ics2o.mths.ca" style="swimlane;whiteSpace=wrap;html=1;strokeColor=#000000;strokeWidth=1;gradientColor=none;perimeterSpacing=0;glass=0;labelBackgroundColor=none;labelBorderColor=none;" vertex="1" parent="Yp97-BhbkqVemv3eh-Q1-1">
                    <mxGeometry x="40" y="40" width="760" height="636.5" as="geometry"/>
                </mxCell>
                <mxCell id="Yp97-BhbkqVemv3eh-Q1-3" value="" style="whiteSpace=wrap;html=1;glass=0;labelBackgroundColor=none;labelBorderColor=none;fontSize=22;fillColor=#E96960;strokeColor=#36393d;" vertex="1" parent="Yp97-BhbkqVemv3eh-Q1-2">
                    <mxGeometry y="20" width="760" height="590" as="geometry"/>
                </mxCell>
                <mxCell id="Yp97-BhbkqVemv3eh-Q1-4" value="" style="whiteSpace=wrap;html=1;fontSize=22;fillColor=#FF4B0F;strokeColor=#d79b00;gradientColor=none;" vertex="1" parent="Yp97-BhbkqVemv3eh-Q1-2">
                    <mxGeometry y="20" width="760" height="50" as="geometry"/>
                </mxCell>
                <mxCell id="Yp97-BhbkqVemv3eh-Q1-5" value="3&amp;nbsp; &amp;nbsp; &amp;nbsp; &amp;nbsp; &amp;nbsp; &amp;nbsp; &amp;nbsp; &amp;nbsp; &amp;nbsp; &amp;nbsp;⌄" style="whiteSpace=wrap;html=1;glass=0;labelBackgroundColor=none;labelBorderColor=none;fontSize=22;fontColor=#000000;fillColor=#FFFFFF;gradientColor=none;" vertex="1" parent="Yp97-BhbkqVemv3eh-Q1-2">
                    <mxGeometry x="30" y="115" width="150" height="25" as="geometry"/>
                </mxCell>
                <mxCell id="Yp97-BhbkqVemv3eh-Q1-6" value="&lt;span style=&quot;font-size: 24px;&quot;&gt;&lt;font color=&quot;#ffffff&quot;&gt;Guess a number from 1-6 using the select element.&lt;/font&gt;&lt;/span&gt;" style="text;html=1;align=center;verticalAlign=middle;resizable=0;points=[];autosize=1;fontSize=26;fontColor=#000000;" vertex="1" parent="Yp97-BhbkqVemv3eh-Q1-2">
                    <mxGeometry y="65" width="570" height="50" as="geometry"/>
                </mxCell>
                <mxCell id="Yp97-BhbkqVemv3eh-Q1-7" value="Guess" style="whiteSpace=wrap;html=1;fillColor=#999999;" vertex="1" parent="Yp97-BhbkqVemv3eh-Q1-2">
                    <mxGeometry x="45" y="160" width="120" height="30" as="geometry"/>
                </mxCell>
                <mxCell id="Yp97-BhbkqVemv3eh-Q1-8" value="&lt;font color=&quot;#ffffff&quot;&gt;That number is incorrect, try again!&lt;/font&gt;" style="text;strokeColor=none;align=left;fillColor=none;html=1;verticalAlign=middle;whiteSpace=wrap;rounded=0;fontSize=18;fontColor=#000000;" vertex="1" parent="Yp97-BhbkqVemv3eh-Q1-2">
                    <mxGeometry x="20" y="210" width="530" height="30" as="geometry"/>
                </mxCell>
                <mxCell id="Yp97-BhbkqVemv3eh-Q1-9" value="&lt;font color=&quot;#ffffff&quot;&gt;Guess the Number&lt;/font&gt;" style="text;html=1;align=center;verticalAlign=middle;resizable=0;points=[];autosize=1;fontSize=30;fontColor=#000000;" vertex="1" parent="Yp97-BhbkqVemv3eh-Q1-2">
                    <mxGeometry x="245" y="20" width="280" height="50" as="geometry"/>
                </mxCell>
            </root>
        </mxGraphModel>
    </diagram>
</mxfile>